<svg width="24" height="24" viewBox="0 0 24 24" fill="none" xmlns="http://www.w3.org/2000/svg">
<g clip-path="url(#clip0_37_164)">
<path fill-rule="evenodd" clip-rule="evenodd" d="M5.51256 5.51256C6.19598 4.82915 7.30402 4.82915 7.98744 5.51256L12 9.52513L16.0126 5.51256C16.696 4.82915 17.804 4.82915 18.4874 5.51256C19.1709 6.19598 19.1709 7.30402 18.4874 7.98744L14.4749 12L18.4874 16.0126C19.1709 16.696 19.1709 17.804 18.4874 18.4874C17.804 19.1709 16.696 19.1709 16.0126 18.4874L12 14.4749L7.98744 18.4874C7.30402 19.1709 6.19598 19.1709 5.51256 18.4874C4.82915 17.804 4.82915 16.696 5.51256 16.0126L9.52513 12L5.51256 7.98744C4.82915 7.30402 4.82915 6.19598 5.51256 5.51256Z" fill="currentColor"/>
<path fill-rule="evenodd" clip-rule="evenodd" d="M32 24C28.134 24 25 27.134 25 31C25 33.2061 26.3361 35.268 28.2049 36.8876L31.6463 39.8702C31.8493 40.0461 32.1507 40.0461 32.3537 39.8702L35.7951 36.8876C37.6639 35.268 39 33.2061 39 31C39 27.134 35.866 24 32 24ZM23 31C23 26.0294 27.0294 22 32 22C36.9706 22 41 26.0294 41 31C41 34.0264 39.1902 36.5918 37.1049 38.399L33.6635 41.3816C32.7088 42.209 31.2912 42.209 30.3365 41.3816L26.8951 38.399C24.8098 36.5918 23 34.0264 23 31Z" fill="currentColor"/>
</g>
<defs>
<clipPath id="clip0_37_164">
<rect width="24" height="24" fill="currentColor"/>
</clipPath>
</defs>
</svg>
